<svg xmlns="http://www.w3.org/2000/svg" width="1200" height="860" viewBox="0 0 1200 860" role="img" aria-labelledby="title desc">
<title id="title">Chandra — software tracker</title>
<desc id="desc">ASCII Chandra, stereo waveforms, four technology channels, project instruments, and a teal automation envelope. Decorative transport controls.</desc>
<rect x="0" y="0" width="1200" height="860" fill="#30333a" stroke="none"/>
<rect x="1" y="1" width="1198" height="858" fill="#191b20" stroke="#51545b"/>
<rect x="2" y="2" width="1196" height="28" fill="#464950" stroke="none"/>
<text x="14" y="21" fill="#e1e2dc" font-family="Consolas, monospace" font-size="13" font-weight="bold" xml:space="preserve">[#] CHNDRANNDR / SOFTWARE TRACKER</text>
<text x="979" y="21" fill="#dcc264" font-family="Consolas, monospace" font-size="12" font-weight="normal" xml:space="preserve">PROFILE SESSION 01</text>
<text x="16" y="49" fill="#a6a9ad" font-family="Consolas, monospace" font-size="12" font-weight="normal" xml:space="preserve">File   Edit   View   Pattern   Instruments   Help</text>
<text x="925" y="49" fill="#81bdb7" font-family="Consolas, monospace" font-size="12" font-weight="normal" xml:space="preserve">JAVA / TYPESCRIPT / AI</text>
<rect x="12" y="62" width="1176" height="156" fill="#191b20" stroke="#51545b"/>
<rect x="13" y="63" width="1174" height="24" fill="#373a40" stroke="none"/>
<path d="M13 63L1187 63" stroke="#62666c"/>
<text x="22" y="79" fill="#e1e2dc" font-family="Consolas, monospace" font-size="12" font-weight="normal" xml:space="preserve">CHANDRA.TRK</text>
<text x="29" y="109" fill="#dcc264" font-family="Consolas, monospace" font-size="16" font-weight="bold" xml:space="preserve"> ####  #   #   ###   #   #  ####   ####    ### </text>
<text x="29" y="128" fill="#dcc264" font-family="Consolas, monospace" font-size="16" font-weight="bold" xml:space="preserve">#      #   #  #   #  ##  #  #   #  #   #  #   #</text>
<text x="29" y="147" fill="#dcc264" font-family="Consolas, monospace" font-size="16" font-weight="bold" xml:space="preserve">#      #####  #####  # # #  #   #  ####   #####</text>
<text x="29" y="166" fill="#dcc264" font-family="Consolas, monospace" font-size="16" font-weight="bold" xml:space="preserve">#      #   #  #   #  #  ##  #   #  #  #   #   #</text>
<text x="29" y="185" fill="#dcc264" font-family="Consolas, monospace" font-size="16" font-weight="bold" xml:space="preserve"> ####  #   #  #   #  #   #  ####   #   #  #   #</text>
<path d="M504 98L504 202" stroke="#51545b"/>
<text x="530" y="115" fill="#e1e2dc" font-family="Consolas, monospace" font-size="25" font-weight="bold" xml:space="preserve">Chandra</text>
<text x="530" y="143" fill="#81bdb7" font-family="Consolas, monospace" font-size="16" font-weight="normal" xml:space="preserve">Senior Full Stack / Applied AI Engineer</text>
<text x="530" y="170" fill="#e1e2dc" font-family="Consolas, monospace" font-size="14" font-weight="normal" xml:space="preserve">9+ years shipping production software.</text>
<text x="530" y="194" fill="#a6a9ad" font-family="Consolas, monospace" font-size="13" font-weight="normal" xml:space="preserve">Distributed systems. Practical AI. Developer tools.</text>
<rect x="12" y="228" width="180" height="152" fill="#191b20" stroke="#51545b"/>
<rect x="13" y="229" width="178" height="24" fill="#373a40" stroke="none"/>
<path d="M13 229L191 229" stroke="#62666c"/>
<text x="22" y="245" fill="#e1e2dc" font-family="Consolas, monospace" font-size="12" font-weight="normal" xml:space="preserve">TRANSPORT</text>
<text x="25" y="279" fill="#dcc264" font-family="Consolas, monospace" font-size="15" font-weight="normal" xml:space="preserve">[&gt;] [||] [#] [&lt;&gt;]</text>
<text x="25" y="310" fill="#e1e2dc" font-family="Consolas, monospace" font-size="13" font-weight="normal" xml:space="preserve">BPM 128   LPB 04</text>
<text x="25" y="336" fill="#e1e2dc" font-family="Consolas, monospace" font-size="13" font-weight="normal" xml:space="preserve">PAT 01    LEN 64</text>
<text x="25" y="362" fill="#81bdb7" font-family="Consolas, monospace" font-size="12" font-weight="normal" xml:space="preserve">MODE PROFILE LOOP</text>
<rect x="202" y="228" width="674" height="152" fill="#191b20" stroke="#51545b"/>
<rect x="203" y="229" width="672" height="24" fill="#373a40" stroke="none"/>
<path d="M203 229L875 229" stroke="#62666c"/>
<text x="212" y="245" fill="#e1e2dc" font-family="Consolas, monospace" font-size="12" font-weight="normal" xml:space="preserve">MASTER SCOPES / STEREO</text>
<text x="218" y="273" fill="#a6a9ad" font-family="Consolas, monospace" font-size="11" font-weight="normal" xml:space="preserve">LEFT</text>
<path d="M214 284L532 284" stroke="#2d3036"/>
<path d="M214 310L532 310" stroke="#2d3036"/>
<path d="M214 336L532 336" stroke="#2d3036"/>
<path d="M214 362L532 362" stroke="#2d3036"/>
<polyline points="214,320.0 215,316.1 216,315.3 217,316.5 218,316.7 219,315.6 220,316.0 221,318.3 222,319.3 223,316.8 224,313.1 225,312.0 226,313.2 227,313.7 228,313.1 229,314.0 230,317.8 231,321.3 232,321.1 233,318.5 234,317.6 235,319.0 236,319.8 237,318.7 238,319.0 239,323.5 240,329.1 241,330.9 242,328.8 243,327.4 244,328.4 245,328.3 246,324.7 247,321.8 248,324.5 249,330.6 250,333.3 251,330.5 252,327.6 253,327.6 254,326.2 255,319.1 256,310.8 257,309.4 258,314.8 259,318.4 260,315.9 261,312.9 262,314.4 263,315.2 264,307.9 265,296.3 266,292.0 267,297.8 268,304.5 269,305.2 270,305.7 271,312.7 272,320.9 273,319.0 274,308.3 275,302.4 276,308.4 277,317.4 278,320.2 279,322.1 280,332.7 281,347.3 282,351.0 283,341.0 284,331.3 285,332.5 286,337.5 287,335.7 288,331.8 289,338.1 290,352.5 291,358.5 292,348.3 293,334.0 294,328.5 295,327.4 296,319.4 297,307.7 298,306.9 299,318.9 300,327.9 301,322.2 302,310.1 303,305.0 304,304.7 305,297.4 306,284.4 307,280.6 308,292.3 309,306.4 310,309.6 311,305.6 312,306.7 313,312.2 314,310.7 315,300.8 316,295.6 317,304.4 318,318.9 319,326.2 320,326.7 321,330.5 322,338.3 323,339.9 324,331.2 325,322.4 326,323.9 327,331.9 328,335.8 329,334.6 330,335.9 331,341.6 332,343.4 333,335.8 334,325.1 335,320.8 336,322.5 337,322.8 338,319.6 339,318.8 340,323.0 341,326.3 342,322.7 343,315.0 344,310.6 345,310.9 346,310.8 347,308.4 348,307.7 349,311.9 350,317.1 351,318.0 352,314.8 353,312.7 354,313.6 355,314.4 356,312.9 357,312.0 358,315.2 359,320.6 360,323.4 361,322.8 362,321.9 363,323.0 364,323.7 365,322.0 366,319.9 367,320.8 368,324.6 369,327.4 370,327.2 371,326.3 372,326.9 373,327.4 374,325.1 375,321.3 376,319.8 377,321.5 378,323.3 379,322.9 380,321.8 381,322.2 382,323.0 383,321.1 384,316.7 385,313.7 386,314.1 387,315.6 388,315.4 389,314.6 390,315.9 391,318.3 392,318.4 393,315.1 394,312.1 395,312.2 396,313.9 397,314.3 398,314.1 399,316.3 400,320.9 401,323.8 402,322.3 403,319.5 404,319.5 405,321.4 406,321.6 407,320.5 408,322.2 409,328.2 410,333.5 411,333.3 412,329.9 413,328.7 414,329.6 415,327.9 416,323.1 417,321.2 418,325.9 419,332.0 420,332.3 421,327.5 422,324.5 423,324.3 424,320.5 425,311.0 426,303.6 427,305.6 428,312.6 429,314.8 430,311.0 431,309.2 432,311.9 433,310.9 434,300.9 435,290.4 436,291.0 437,300.5 438,307.3 439,307.8 440,310.7 441,320.3 442,326.8 443,320.9 444,309.7 445,308.1 446,317.7 447,326.2 448,327.7 449,331.6 450,344.5 451,356.4 452,353.7 453,340.0 454,332.0 455,335.2 456,338.3 457,334.0 458,331.4 459,340.5 460,352.9 461,352.0 462,337.0 463,323.5 464,320.2 465,318.0 466,308.1 467,299.2 468,303.7 469,317.0 470,321.8 471,312.7 472,302.4 473,300.5 474,300.2 475,292.0 476,282.4 477,285.4 478,300.5 479,312.4 480,312.6 481,309.7 482,313.0 483,317.5 484,313.6 485,304.8 486,304.5 487,316.3 488,328.6 489,332.2 490,332.0 491,336.1 492,341.5 493,338.9 494,329.0 495,323.1 496,326.8 497,333.3 498,334.5 499,332.6 500,334.3 501,338.3 502,336.6 503,327.5 504,319.1 505,317.5 506,319.5 507,318.8 508,316.2 509,317.1 510,321.2 511,322.5 512,317.7 513,311.5 514,309.6 515,310.7 516,310.5 517,308.9 518,310.0 519,314.8 520,318.8 521,318.2 522,315.3 523,314.5 524,315.8 525,316.1 526,314.8 527,315.2 528,319.2 529,323.8 530,325.1 531,323.9" fill="none" stroke="#d1d5d1" stroke-width="1.1"/>
<text x="550" y="273" fill="#a6a9ad" font-family="Consolas, monospace" font-size="11" font-weight="normal" xml:space="preserve">RIGHT</text>
<path d="M546 284L864 284" stroke="#2d3036"/>
<path d="M546 310L864 310" stroke="#2d3036"/>
<path d="M546 336L864 336" stroke="#2d3036"/>
<path d="M546 362L864 362" stroke="#2d3036"/>
<polyline points="546,302.7 547,293.1 548,295.2 549,304.4 550,309.6 551,310.7 552,316.2 553,327.3 554,333.6 555,328.9 556,320.9 557,319.9 558,324.8 559,327.1 560,325.8 561,327.9 562,335.8 563,342.0 564,339.4 565,332.0 566,327.9 567,328.1 568,326.7 569,322.4 570,320.4 571,324.2 572,328.9 573,328.3 574,323.2 575,319.5 576,318.7 577,317.1 578,312.8 579,309.8 580,311.6 581,316.0 582,317.8 583,316.1 584,314.7 585,315.5 586,315.6 587,313.0 588,310.2 589,311.2 590,315.3 591,318.3 592,318.7 593,319.0 594,321.0 595,322.5 596,321.1 597,318.3 598,317.9 599,320.7 600,323.5 601,324.2 602,324.5 603,326.6 604,328.7 605,327.7 606,324.1 607,321.8 608,322.6 609,323.9 610,323.4 611,322.7 612,324.0 613,326.2 614,325.8 615,322.0 616,318.4 617,317.5 618,317.6 619,316.3 620,314.5 621,315.4 622,318.5 623,319.8 624,317.3 625,313.9 626,312.8 627,313.2 628,311.8 629,309.5 630,310.4 631,315.3 632,319.6 633,319.6 634,317.6 635,317.7 636,319.5 637,318.7 638,315.5 639,315.4 640,321.3 641,328.5 642,331.1 643,330.2 644,331.1 645,334.1 646,333.1 647,326.8 648,322.2 649,325.6 650,332.7 651,335.3 652,333.2 653,333.2 654,336.4 655,334.8 656,324.2 657,312.7 658,310.4 659,315.0 660,316.3 661,312.6 662,312.2 663,317.9 664,320.0 665,310.1 666,295.6 667,290.0 668,294.1 669,296.7 670,294.3 671,296.2 672,308.2 673,319.7 674,317.7 675,306.5 676,301.5 677,306.7 678,311.1 679,309.1 680,311.0 681,325.7 682,344.0 683,349.4 684,341.6 685,335.6 686,338.3 687,339.8 688,332.6 689,326.7 690,334.7 691,350.9 692,357.7 693,350.3 694,341.7 695,340.2 696,337.6 697,324.9 698,310.4 699,309.0 700,319.9 701,326.9 702,322.3 703,315.6 704,315.6 705,315.6 706,305.5 707,290.4 708,285.5 709,293.9 710,303.2 711,304.4 712,303.6 713,309.1 714,315.8 715,313.4 716,303.2 717,298.2 718,304.2 719,313.0 720,316.4 721,317.9 722,324.7 723,333.8 724,335.7 725,328.9 726,322.7 727,323.8 728,327.9 729,328.4 730,327.0 731,330.1 732,336.7 733,339.2 734,334.1 735,327.3 736,324.8 737,324.9 738,322.7 739,319.0 740,318.9 741,323.0 742,325.9 743,323.6 744,318.9 745,316.6 746,316.3 747,314.4 748,310.9 749,309.8 750,313.0 751,316.9 752,317.4 753,315.7 754,315.2 755,316.2 756,315.8 757,313.2 758,311.7 759,314.1 760,318.3 761,320.5 762,320.5 763,321.1 764,323.2 765,323.8 766,321.6 767,319.2 768,320.0 769,323.1 770,325.2 771,325.2 772,325.7 773,327.8 774,328.8 775,326.4 776,322.6 777,321.1 778,322.3 779,323.1 780,322.1 781,321.7 782,323.5 783,325.0 784,323.1 785,318.7 786,315.7 787,315.6 788,315.6 789,314.0 790,312.9 791,315.1 792,318.4 793,318.6 794,315.1 795,312.0 796,312.0 797,312.5 798,310.8 799,309.3 800,312.4 801,318.7 802,322.5 803,321.3 804,319.3 805,320.5 806,322.2 807,320.2 808,317.2 809,319.4 810,327.7 811,334.5 812,335.1 813,333.4 814,334.9 815,336.9 816,332.9 817,324.8 818,321.8 819,327.7 820,334.5 821,334.5 822,331.1 823,331.6 824,333.7 825,328.0 826,314.1 827,303.9 828,305.1 829,310.7 830,310.5 831,306.8 832,308.9 833,315.5 834,314.3 835,301.0 836,288.2 837,287.6 838,294.5 839,297.0 840,295.8 841,302.4 842,317.2 843,326.0 844,319.6 845,308.6 846,307.8 847,315.2 848,318.3 849,316.5 850,322.3 851,339.8 852,354.6 853,353.4 854,342.8 855,338.4 856,341.2 857,339.3 858,330.3 859,327.5 860,338.7 861,352.2 862,352.4 863,341.6" fill="none" stroke="#d1d5d1" stroke-width="1.1"/>
<rect x="886" y="228" width="302" height="152" fill="#191b20" stroke="#51545b"/>
<rect x="887" y="229" width="300" height="24" fill="#373a40" stroke="none"/>
<path d="M887 229L1187 229" stroke="#62666c"/>
<text x="896" y="245" fill="#e1e2dc" font-family="Consolas, monospace" font-size="12" font-weight="normal" xml:space="preserve">INSTRUMENTS / PROJECTS</text>
<text x="900" y="278" fill="#e1e2dc" font-family="Consolas, monospace" font-size="14" font-weight="normal" xml:space="preserve">01  MERATUS</text>
<text x="900" y="303" fill="#e1e2dc" font-family="Consolas, monospace" font-size="14" font-weight="normal" xml:space="preserve">02  Job Sequencer</text>
<rect x="887" y="315" width="300" height="26" fill="#3f4949" stroke="none"/>
<text x="900" y="328" fill="#81bdb7" font-family="Consolas, monospace" font-size="14" font-weight="normal" xml:space="preserve">03  Study Canvas</text>
<text x="900" y="353" fill="#e1e2dc" font-family="Consolas, monospace" font-size="14" font-weight="normal" xml:space="preserve">04  Clueless</text>
<rect x="12" y="390" width="1176" height="290" fill="#191b20" stroke="#51545b"/>
<rect x="13" y="391" width="1174" height="24" fill="#373a40" stroke="none"/>
<path d="M13 391L1187 391" stroke="#62666c"/>
<text x="22" y="407" fill="#e1e2dc" font-family="Consolas, monospace" font-size="12" font-weight="normal" xml:space="preserve">PATTERN EDITOR                                      NOTE / INSTRUMENT / VOLUME / FX</text>
<rect x="13" y="415" width="57" height="264" fill="#292b30" stroke="none"/>
<rect x="70" y="415" width="277" height="47" fill="#2e3137" stroke="none"/>
<text x="83" y="435" fill="#dcc264" font-family="Consolas, monospace" font-size="14" font-weight="bold" xml:space="preserve">01  BACKEND</text>
<text x="83" y="453" fill="#a6a9ad" font-family="Consolas, monospace" font-size="12" font-weight="normal" xml:space="preserve">Java / Spring</text>
<text x="223" y="453" fill="#a6a9ad" font-family="Consolas, monospace" font-size="11" font-weight="normal" xml:space="preserve">VOL  FX</text>
<path d="M70 415L70 679" stroke="#51545b"/>
<rect x="349" y="415" width="277" height="47" fill="#2e3137" stroke="none"/>
<text x="362" y="435" fill="#81bdb7" font-family="Consolas, monospace" font-size="14" font-weight="bold" xml:space="preserve">02  PRODUCT</text>
<text x="362" y="453" fill="#a6a9ad" font-family="Consolas, monospace" font-size="12" font-weight="normal" xml:space="preserve">TS / React</text>
<text x="502" y="453" fill="#a6a9ad" font-family="Consolas, monospace" font-size="11" font-weight="normal" xml:space="preserve">VOL  FX</text>
<path d="M349 415L349 679" stroke="#51545b"/>
<rect x="628" y="415" width="277" height="47" fill="#2e3137" stroke="none"/>
<text x="641" y="435" fill="#b2c7a4" font-family="Consolas, monospace" font-size="14" font-weight="bold" xml:space="preserve">03  APPLIED AI</text>
<text x="641" y="453" fill="#a6a9ad" font-family="Consolas, monospace" font-size="12" font-weight="normal" xml:space="preserve">Agents / MCP</text>
<text x="781" y="453" fill="#a6a9ad" font-family="Consolas, monospace" font-size="11" font-weight="normal" xml:space="preserve">VOL  FX</text>
<path d="M628 415L628 679" stroke="#51545b"/>
<rect x="907" y="415" width="277" height="47" fill="#2e3137" stroke="none"/>
<text x="920" y="435" fill="#bdafca" font-family="Consolas, monospace" font-size="14" font-weight="bold" xml:space="preserve">04  PLATFORM</text>
<text x="920" y="453" fill="#a6a9ad" font-family="Consolas, monospace" font-size="12" font-weight="normal" xml:space="preserve">Docker / AWS</text>
<text x="1060" y="453" fill="#a6a9ad" font-family="Consolas, monospace" font-size="11" font-weight="normal" xml:space="preserve">VOL  FX</text>
<path d="M907 415L907 679" stroke="#51545b"/>
<rect x="70" y="463" width="1116" height="17" fill="#26292e" stroke="none"/>
<text x="26" y="476" fill="#dcc264" font-family="Consolas, monospace" font-size="12" font-weight="normal" xml:space="preserve">00</text>
<text x="83" y="476" fill="#dcc264" font-family="Consolas, monospace" font-size="13" font-weight="normal" xml:space="preserve">C-3  01   7F   0F00</text>
<text x="362" y="476" fill="#757c82" font-family="Consolas, monospace" font-size="13" font-weight="normal" xml:space="preserve">...  ..   ..   ....</text>
<text x="641" y="476" fill="#757c82" font-family="Consolas, monospace" font-size="13" font-weight="normal" xml:space="preserve">...  ..   ..   ....</text>
<text x="920" y="476" fill="#757c82" font-family="Consolas, monospace" font-size="13" font-weight="normal" xml:space="preserve">...  ..   ..   ....</text>
<path d="M70 479L1186 479" stroke="#303238"/>
<text x="26" y="493" fill="#a6a9ad" font-family="Consolas, monospace" font-size="12" font-weight="normal" xml:space="preserve">01</text>
<text x="83" y="493" fill="#757c82" font-family="Consolas, monospace" font-size="13" font-weight="normal" xml:space="preserve">...  ..   ..   ....</text>
<text x="362" y="493" fill="#757c82" font-family="Consolas, monospace" font-size="13" font-weight="normal" xml:space="preserve">...  ..   ..   ....</text>
<text x="641" y="493" fill="#757c82" font-family="Consolas, monospace" font-size="13" font-weight="normal" xml:space="preserve">...  ..   ..   ....</text>
<text x="920" y="493" fill="#bdafca" font-family="Consolas, monospace" font-size="13" font-weight="normal" xml:space="preserve">C-2  04   7F   0F00</text>
<path d="M70 496L1186 496" stroke="#303238"/>
<text x="26" y="510" fill="#a6a9ad" font-family="Consolas, monospace" font-size="12" font-weight="normal" xml:space="preserve">02</text>
<text x="83" y="510" fill="#757c82" font-family="Consolas, monospace" font-size="13" font-weight="normal" xml:space="preserve">...  ..   ..   ....</text>
<text x="362" y="510" fill="#757c82" font-family="Consolas, monospace" font-size="13" font-weight="normal" xml:space="preserve">...  ..   ..   ....</text>
<text x="641" y="510" fill="#b2c7a4" font-family="Consolas, monospace" font-size="13" font-weight="normal" xml:space="preserve">G-4  03   7F   0F00</text>
<text x="920" y="510" fill="#757c82" font-family="Consolas, monospace" font-size="13" font-weight="normal" xml:space="preserve">...  ..   ..   ....</text>
<path d="M70 513L1186 513" stroke="#303238"/>
<text x="26" y="527" fill="#a6a9ad" font-family="Consolas, monospace" font-size="12" font-weight="normal" xml:space="preserve">03</text>
<text x="83" y="527" fill="#757c82" font-family="Consolas, monospace" font-size="13" font-weight="normal" xml:space="preserve">...  ..   ..   ....</text>
<text x="362" y="527" fill="#81bdb7" font-family="Consolas, monospace" font-size="13" font-weight="normal" xml:space="preserve">E-4  02   7F   0F00</text>
<text x="641" y="527" fill="#757c82" font-family="Consolas, monospace" font-size="13" font-weight="normal" xml:space="preserve">...  ..   ..   ....</text>
<text x="920" y="527" fill="#bdafca" font-family="Consolas, monospace" font-size="13" font-weight="normal" xml:space="preserve">C-2  04   7F   0F00</text>
<path d="M70 530L1186 530" stroke="#303238"/>
<rect x="13" y="531" width="1174" height="17" fill="#4b4831" stroke="none"/>
<rect x="13" y="531" width="3" height="17" fill="#dcc264" stroke="none"/>
<text x="26" y="544" fill="#dcc264" font-family="Consolas, monospace" font-size="12" font-weight="normal" xml:space="preserve">04</text>
<text x="83" y="544" fill="#dcc264" font-family="Consolas, monospace" font-size="13" font-weight="normal" xml:space="preserve">C-3  01   7F   0F00</text>
<text x="362" y="544" fill="#757c82" font-family="Consolas, monospace" font-size="13" font-weight="normal" xml:space="preserve">...  ..   ..   ....</text>
<text x="641" y="544" fill="#757c82" font-family="Consolas, monospace" font-size="13" font-weight="normal" xml:space="preserve">...  ..   ..   ....</text>
<text x="920" y="544" fill="#757c82" font-family="Consolas, monospace" font-size="13" font-weight="normal" xml:space="preserve">...  ..   ..   ....</text>
<path d="M70 547L1186 547" stroke="#303238"/>
<text x="26" y="561" fill="#a6a9ad" font-family="Consolas, monospace" font-size="12" font-weight="normal" xml:space="preserve">05</text>
<text x="83" y="561" fill="#757c82" font-family="Consolas, monospace" font-size="13" font-weight="normal" xml:space="preserve">...  ..   ..   ....</text>
<text x="362" y="561" fill="#757c82" font-family="Consolas, monospace" font-size="13" font-weight="normal" xml:space="preserve">...  ..   ..   ....</text>
<text x="641" y="561" fill="#757c82" font-family="Consolas, monospace" font-size="13" font-weight="normal" xml:space="preserve">...  ..   ..   ....</text>
<text x="920" y="561" fill="#bdafca" font-family="Consolas, monospace" font-size="13" font-weight="normal" xml:space="preserve">C-2  04   7F   0F00</text>
<path d="M70 564L1186 564" stroke="#303238"/>
<text x="26" y="578" fill="#a6a9ad" font-family="Consolas, monospace" font-size="12" font-weight="normal" xml:space="preserve">06</text>
<text x="83" y="578" fill="#757c82" font-family="Consolas, monospace" font-size="13" font-weight="normal" xml:space="preserve">...  ..   ..   ....</text>
<text x="362" y="578" fill="#757c82" font-family="Consolas, monospace" font-size="13" font-weight="normal" xml:space="preserve">...  ..   ..   ....</text>
<text x="641" y="578" fill="#b2c7a4" font-family="Consolas, monospace" font-size="13" font-weight="normal" xml:space="preserve">G-4  03   7F   0F00</text>
<text x="920" y="578" fill="#757c82" font-family="Consolas, monospace" font-size="13" font-weight="normal" xml:space="preserve">...  ..   ..   ....</text>
<path d="M70 581L1186 581" stroke="#303238"/>
<text x="26" y="595" fill="#a6a9ad" font-family="Consolas, monospace" font-size="12" font-weight="normal" xml:space="preserve">07</text>
<text x="83" y="595" fill="#757c82" font-family="Consolas, monospace" font-size="13" font-weight="normal" xml:space="preserve">...  ..   ..   ....</text>
<text x="362" y="595" fill="#81bdb7" font-family="Consolas, monospace" font-size="13" font-weight="normal" xml:space="preserve">E-4  02   7F   0F00</text>
<text x="641" y="595" fill="#757c82" font-family="Consolas, monospace" font-size="13" font-weight="normal" xml:space="preserve">...  ..   ..   ....</text>
<text x="920" y="595" fill="#bdafca" font-family="Consolas, monospace" font-size="13" font-weight="normal" xml:space="preserve">C-2  04   7F   0F00</text>
<path d="M70 598L1186 598" stroke="#303238"/>
<rect x="70" y="599" width="1116" height="17" fill="#26292e" stroke="none"/>
<text x="26" y="612" fill="#dcc264" font-family="Consolas, monospace" font-size="12" font-weight="normal" xml:space="preserve">08</text>
<text x="83" y="612" fill="#dcc264" font-family="Consolas, monospace" font-size="13" font-weight="normal" xml:space="preserve">C-3  01   7F   0F00</text>
<text x="362" y="612" fill="#757c82" font-family="Consolas, monospace" font-size="13" font-weight="normal" xml:space="preserve">...  ..   ..   ....</text>
<text x="641" y="612" fill="#757c82" font-family="Consolas, monospace" font-size="13" font-weight="normal" xml:space="preserve">...  ..   ..   ....</text>
<text x="920" y="612" fill="#757c82" font-family="Consolas, monospace" font-size="13" font-weight="normal" xml:space="preserve">...  ..   ..   ....</text>
<path d="M70 615L1186 615" stroke="#303238"/>
<text x="26" y="629" fill="#a6a9ad" font-family="Consolas, monospace" font-size="12" font-weight="normal" xml:space="preserve">09</text>
<text x="83" y="629" fill="#757c82" font-family="Consolas, monospace" font-size="13" font-weight="normal" xml:space="preserve">...  ..   ..   ....</text>
<text x="362" y="629" fill="#757c82" font-family="Consolas, monospace" font-size="13" font-weight="normal" xml:space="preserve">...  ..   ..   ....</text>
<text x="641" y="629" fill="#757c82" font-family="Consolas, monospace" font-size="13" font-weight="normal" xml:space="preserve">...  ..   ..   ....</text>
<text x="920" y="629" fill="#bdafca" font-family="Consolas, monospace" font-size="13" font-weight="normal" xml:space="preserve">C-2  04   7F   0F00</text>
<path d="M70 632L1186 632" stroke="#303238"/>
<text x="26" y="646" fill="#a6a9ad" font-family="Consolas, monospace" font-size="12" font-weight="normal" xml:space="preserve">0A</text>
<text x="83" y="646" fill="#757c82" font-family="Consolas, monospace" font-size="13" font-weight="normal" xml:space="preserve">...  ..   ..   ....</text>
<text x="362" y="646" fill="#757c82" font-family="Consolas, monospace" font-size="13" font-weight="normal" xml:space="preserve">...  ..   ..   ....</text>
<text x="641" y="646" fill="#b2c7a4" font-family="Consolas, monospace" font-size="13" font-weight="normal" xml:space="preserve">G-4  03   7F   0F00</text>
<text x="920" y="646" fill="#757c82" font-family="Consolas, monospace" font-size="13" font-weight="normal" xml:space="preserve">...  ..   ..   ....</text>
<path d="M70 649L1186 649" stroke="#303238"/>
<text x="26" y="663" fill="#a6a9ad" font-family="Consolas, monospace" font-size="12" font-weight="normal" xml:space="preserve">0B</text>
<text x="83" y="663" fill="#757c82" font-family="Consolas, monospace" font-size="13" font-weight="normal" xml:space="preserve">...  ..   ..   ....</text>
<text x="362" y="663" fill="#81bdb7" font-family="Consolas, monospace" font-size="13" font-weight="normal" xml:space="preserve">E-4  02   7F   0F00</text>
<text x="641" y="663" fill="#757c82" font-family="Consolas, monospace" font-size="13" font-weight="normal" xml:space="preserve">...  ..   ..   ....</text>
<text x="920" y="663" fill="#bdafca" font-family="Consolas, monospace" font-size="13" font-weight="normal" xml:space="preserve">C-2  04   7F   0F00</text>
<path d="M70 666L1186 666" stroke="#303238"/>
<rect x="12" y="690" width="1176" height="132" fill="#191b20" stroke="#51545b"/>
<rect x="13" y="691" width="1174" height="24" fill="#373a40" stroke="none"/>
<path d="M13 691L1187 691" stroke="#62666c"/>
<text x="22" y="707" fill="#e1e2dc" font-family="Consolas, monospace" font-size="12" font-weight="normal" xml:space="preserve">AUTOMATION / SMALL FEEDBACK LOOPS</text>
<text x="25" y="744" fill="#e1e2dc" font-family="Consolas, monospace" font-size="12" font-weight="normal" xml:space="preserve">[x] Build</text>
<text x="25" y="768" fill="#e1e2dc" font-family="Consolas, monospace" font-size="12" font-weight="normal" xml:space="preserve">[x] Verify</text>
<text x="25" y="792" fill="#81bdb7" font-family="Consolas, monospace" font-size="12" font-weight="normal" xml:space="preserve">[x] Iterate</text>
<path d="M164 716L164 821" stroke="#51545b"/>
<path d="M181 722L181 807" stroke="#2e3237"/>
<path d="M206 722L206 807" stroke="#2e3237"/>
<path d="M231 722L231 807" stroke="#2e3237"/>
<path d="M256 722L256 807" stroke="#2e3237"/>
<path d="M281 722L281 807" stroke="#2e3237"/>
<path d="M306 722L306 807" stroke="#2e3237"/>
<path d="M331 722L331 807" stroke="#2e3237"/>
<path d="M356 722L356 807" stroke="#2e3237"/>
<path d="M381 722L381 807" stroke="#2e3237"/>
<path d="M406 722L406 807" stroke="#2e3237"/>
<path d="M431 722L431 807" stroke="#2e3237"/>
<path d="M456 722L456 807" stroke="#2e3237"/>
<path d="M481 722L481 807" stroke="#2e3237"/>
<path d="M506 722L506 807" stroke="#2e3237"/>
<path d="M531 722L531 807" stroke="#2e3237"/>
<path d="M556 722L556 807" stroke="#2e3237"/>
<path d="M581 722L581 807" stroke="#2e3237"/>
<path d="M606 722L606 807" stroke="#2e3237"/>
<path d="M631 722L631 807" stroke="#2e3237"/>
<path d="M656 722L656 807" stroke="#2e3237"/>
<path d="M681 722L681 807" stroke="#2e3237"/>
<path d="M706 722L706 807" stroke="#2e3237"/>
<path d="M731 722L731 807" stroke="#2e3237"/>
<path d="M756 722L756 807" stroke="#2e3237"/>
<path d="M781 722L781 807" stroke="#2e3237"/>
<path d="M806 722L806 807" stroke="#2e3237"/>
<path d="M831 722L831 807" stroke="#2e3237"/>
<path d="M856 722L856 807" stroke="#2e3237"/>
<path d="M881 722L881 807" stroke="#2e3237"/>
<path d="M906 722L906 807" stroke="#2e3237"/>
<path d="M931 722L931 807" stroke="#2e3237"/>
<path d="M956 722L956 807" stroke="#2e3237"/>
<path d="M981 722L981 807" stroke="#2e3237"/>
<path d="M1006 722L1006 807" stroke="#2e3237"/>
<path d="M1031 722L1031 807" stroke="#2e3237"/>
<path d="M1056 722L1056 807" stroke="#2e3237"/>
<path d="M1081 722L1081 807" stroke="#2e3237"/>
<path d="M1106 722L1106 807" stroke="#2e3237"/>
<path d="M1131 722L1131 807" stroke="#2e3237"/>
<path d="M1156 722L1156 807" stroke="#2e3237"/>
<path d="M180 727L1173 727" stroke="#2e3237"/>
<path d="M180 747L1173 747" stroke="#2e3237"/>
<path d="M180 767L1173 767" stroke="#2e3237"/>
<path d="M180 787L1173 787" stroke="#2e3237"/>
<path d="M180 807L1173 807" stroke="#2e3237"/>
<polygon points="180,808 180,794 245,794 248,746 305,782 375,762 398,793 475,793 478,740 541,781 630,759 654,794 742,794 745,742 808,780 890,757 914,792 1011,792 1014,744 1080,779 1173,758 1173,808" fill="#335e60"/>
<polyline points="180,794 245,794 248,746 305,782 375,762 398,793 475,793 478,740 541,781 630,759 654,794 742,794 745,742 808,780 890,757 914,792 1011,792 1014,744 1080,779 1173,758" fill="none" stroke="#81bdb7" stroke-width="1.5"/>
<rect x="178.5" y="792.5" width="3" height="3" fill="#b4d1cc" stroke="none"/>
<rect x="243.5" y="792.5" width="3" height="3" fill="#b4d1cc" stroke="none"/>
<rect x="246.5" y="744.5" width="3" height="3" fill="#b4d1cc" stroke="none"/>
<rect x="303.5" y="780.5" width="3" height="3" fill="#b4d1cc" stroke="none"/>
<rect x="373.5" y="760.5" width="3" height="3" fill="#b4d1cc" stroke="none"/>
<rect x="396.5" y="791.5" width="3" height="3" fill="#b4d1cc" stroke="none"/>
<rect x="473.5" y="791.5" width="3" height="3" fill="#b4d1cc" stroke="none"/>
<rect x="476.5" y="738.5" width="3" height="3" fill="#b4d1cc" stroke="none"/>
<rect x="539.5" y="779.5" width="3" height="3" fill="#b4d1cc" stroke="none"/>
<rect x="628.5" y="757.5" width="3" height="3" fill="#b4d1cc" stroke="none"/>
<rect x="652.5" y="792.5" width="3" height="3" fill="#b4d1cc" stroke="none"/>
<rect x="740.5" y="792.5" width="3" height="3" fill="#b4d1cc" stroke="none"/>
<rect x="743.5" y="740.5" width="3" height="3" fill="#b4d1cc" stroke="none"/>
<rect x="806.5" y="778.5" width="3" height="3" fill="#b4d1cc" stroke="none"/>
<rect x="888.5" y="755.5" width="3" height="3" fill="#b4d1cc" stroke="none"/>
<rect x="912.5" y="790.5" width="3" height="3" fill="#b4d1cc" stroke="none"/>
<rect x="1009.5" y="790.5" width="3" height="3" fill="#b4d1cc" stroke="none"/>
<rect x="1012.5" y="742.5" width="3" height="3" fill="#b4d1cc" stroke="none"/>
<rect x="1078.5" y="777.5" width="3" height="3" fill="#b4d1cc" stroke="none"/>
<rect x="1171.5" y="756.5" width="3" height="3" fill="#b4d1cc" stroke="none"/>
<text x="16" y="846" fill="#a6a9ad" font-family="Consolas, monospace" font-size="12" font-weight="normal" xml:space="preserve">READY / DETERMINISTIC CORE / AI FOR AMBIGUITY</text>
<text x="958" y="846" fill="#dcc264" font-family="Consolas, monospace" font-size="12" font-weight="normal" xml:space="preserve">CHNDRANNDR [&gt;] LOOP</text>
</svg>